<!-- icon666.com - MILLIONS vector ICONS FREE --><svg viewBox="0 0 64 64" xmlns="http://www.w3.org/2000/svg"><g id="_08_Add_Shopping" data-name="08 Add Shopping"><path d="m58.6943 16h-42.9531a.9991.9991 0 0 0 -.9912 1.13l2.7588 21a1 1 0 0 0 .9912.87h37.7656a3.0149 3.0149 0 0 0 2.97-2.5757l2.4287-17.0005a3.0191 3.0191 0 0 0 -2.97-3.4238z" fill="#ffd54f"/><path d="m46.0005 46.0006c-6.6672-.0906-6.6671 10.0885 0 9.9988 6.6662.0906 6.6662-10.0885 0-9.9988z" fill="#46464e"/><path d="m27.0005 46.0006c-6.6672-.0906-6.6671 10.0885 0 9.9988 6.6662.0906 6.6662-10.0885 0-9.9988z" fill="#46464e"/><path d="m55.5 41h-35.2021l-3.6719-29.3721a3.004 3.004 0 0 0 -2.9766-2.6279h-3.6006a1 1 0 0 0 -1 .9839l-.0488 3a1.0067 1.0067 0 0 0 1 1.0161h1.7822l3.5127 29.3564a3.0024 3.0024 0 0 0 2.9795 2.6436h37.2256c3.2422.0454 3.2438-5.045 0-5z" fill="#67676b"/><path d="m10 8h-5c-3.8906-.0546-3.8924 6.0541 0 6h5a1 1 0 0 0 1-1v-4a1 1 0 0 0 -1-1z" fill="#ff3c38"/><g fill="#ffa000"><path d="m55 20h-5a1 1 0 0 0 -.9971.9233l-1 13a1.0061 1.0061 0 0 0 .9971 1.0767h5a1 1 0 0 0 .9971-.9233l1-13a1.0061 1.0061 0 0 0 -.9971-1.0767z"/><path d="m26 20h-5a1.0062 1.0062 0 0 0 -.9971 1.0767l1 13a1 1 0 0 0 .9971.9233h5a1.0062 1.0062 0 0 0 .9971-1.0767l-1-13a1 1 0 0 0 -.9971-.9233z"/><rect height="15" rx="1" width="7" x="39" y="20"/><rect height="15" rx="1" width="7" x="30" y="20"/></g><path d="m38.0007 8c-16 .0808-16.0014 23.917-.0007 24 15.9993-.0809 16.0007-23.917.0007-24z" fill="#ff3c38"/><path d="m44 17h-3v-3a2.0023 2.0023 0 0 0 -2-2h-2a2.0023 2.0023 0 0 0 -2 2v3h-3a2.002 2.002 0 0 0 -2 2v2a2.002 2.002 0 0 0 2 2h3v3a2.0023 2.0023 0 0 0 2 2h2a2.0023 2.0023 0 0 0 2-2v-3h3a2.0023 2.0023 0 0 0 2-2v-2a2.0023 2.0023 0 0 0 -2-2z" fill="#eee"/></g></svg>