<svg xmlns="http://www.w3.org/2000/svg" width="16.382" height="20.094" viewBox="0 0 16.382 20.094">
  <g id="apple-logo" transform="translate(-2.104)">
    <g id="Group_89029" data-name="Group 89029" transform="translate(2.104)">
      <path id="Path_135405" data-name="Path 135405" d="M15.248,0h.143a4.3,4.3,0,0,1-1.084,3.243,3.359,3.359,0,0,1-2.957,1.388,4.174,4.174,0,0,1,1.1-3.142A4.764,4.764,0,0,1,15.248,0Z" transform="translate(-3.191)"/>
      <path id="Path_135406" data-name="Path 135406" d="M18.486,15.4v.04a11.691,11.691,0,0,1-1.673,3.225c-.638.878-1.42,2.059-2.816,2.059-1.206,0-2.007-.776-3.244-.8-1.308-.021-2.027.649-3.222.817H7.124a3.641,3.641,0,0,1-2.1-1.449,12.693,12.693,0,0,1-2.917-7.3v-.9A5.889,5.889,0,0,1,4.675,6.256,4.342,4.342,0,0,1,7.59,5.581a7.334,7.334,0,0,1,1.429.409,3.945,3.945,0,0,0,1.428.428,3.427,3.427,0,0,0,1-.306A6.162,6.162,0,0,1,14.67,5.54,4.471,4.471,0,0,1,17.955,7.5a4.215,4.215,0,0,0-2.141,4.182A4.318,4.318,0,0,0,18.486,15.4Z" transform="translate(-2.104 -0.646)"/>
    </g>
  </g>
</svg>
