<svg xmlns="http://www.w3.org/2000/svg" width="13.068" height="14" viewBox="0 0 13.068 14">
  <g id="_x38_2_attachment" transform="translate(-4.001 -1)">
    <path id="Path_139989" data-name="Path 139989" d="M15.069,4.734a3.709,3.709,0,0,1-1.094,2.64L7.25,14.18a2.8,2.8,0,1,1-3.963-3.958L8.146,5.39a1.836,1.836,0,0,1,2.586-.053,1.736,1.736,0,0,1,.505,1.294,1.9,1.9,0,0,1-.561,1.29L6.064,12.532a.467.467,0,1,1-.66-.66l4.611-4.611A.968.968,0,0,0,10.3,6.6.812.812,0,0,0,10.072,6,.9.9,0,0,0,8.8,6.052l-4.858,4.83a1.867,1.867,0,0,0,2.641,2.639l6.726-6.805A2.8,2.8,0,1,0,9.355,2.754L2.8,9.266A.467.467,0,0,1,2.138,8.6L8.7,2.093a3.734,3.734,0,0,1,6.373,2.641Z" transform="translate(2)" fill="#fff"/>
  </g>
</svg>
