<svg id="Group_89025" data-name="Group 89025" xmlns="http://www.w3.org/2000/svg" width="67.39" height="46.508" viewBox="0 0 67.39 46.508">
  <path id="Path_135398" data-name="Path 135398" d="M340.239,361.031a6.488,6.488,0,1,0-10.012-8.149c-.309.309-26.141,32.148-26.382,32.513a6.488,6.488,0,1,0,10.012,8.149C314.166,393.236,340,361.4,340.239,361.031Z" transform="translate(-301.95 -349.959)" fill="#1b1a17"/>
  <path id="Path_135399" data-name="Path 135399" d="M384.539,392.431a6.488,6.488,0,1,0-10.009-8.152c-.311.311-13.879,17.035-14.122,17.4a6.488,6.488,0,1,0,10.009,8.152C370.728,409.524,384.3,392.8,384.539,392.431Z" transform="translate(-331.302 -366.252)" fill="#1b1a17"/>
  <g id="Group_89007" data-name="Group 89007" transform="translate(54.412 0)">
    <path id="Path_135400" data-name="Path 135400" d="M428.044,356.448a6.489,6.489,0,1,1-6.489-6.489A6.489,6.489,0,0,1,428.044,356.448Z" transform="translate(-415.066 -349.959)" fill="#f0a500"/>
  </g>
  <g id="Group_89008" data-name="Group 89008" transform="translate(0 0)">
    <path id="Path_135401" data-name="Path 135401" d="M314.928,356.448a6.489,6.489,0,1,1-6.489-6.489A6.49,6.49,0,0,1,314.928,356.448Z" transform="translate(-301.95 -349.959)" fill="#f0a500"/>
  </g>
</svg>
