<svg id="calendar_2_" data-name="calendar (2)" xmlns="http://www.w3.org/2000/svg" width="20.387" height="20.387" viewBox="0 0 20.387 20.387">
  <path id="Path_139978" data-name="Path 139978" d="M0,17.645a4.252,4.252,0,0,0,4.247,4.247H16.139a4.252,4.252,0,0,0,4.247-4.247V10H0Zm14.441-3.823A1.274,1.274,0,1,1,13.166,15.1,1.274,1.274,0,0,1,14.441,13.823Zm-4.247,0A1.274,1.274,0,1,1,8.919,15.1,1.274,1.274,0,0,1,10.193,13.823Zm-4.247,0A1.274,1.274,0,1,1,4.672,15.1a1.274,1.274,0,0,1,1.274-1.274Z" transform="translate(0 -1.506)" fill="#646464"/>
  <path id="Path_139979" data-name="Path 139979" d="M16.139,1.7H15.29V.849a.849.849,0,0,0-1.7,0V1.7H6.8V.849a.849.849,0,1,0-1.7,0V1.7H4.247A4.252,4.252,0,0,0,0,5.946V6.8H20.387V5.946A4.252,4.252,0,0,0,16.139,1.7Z" fill="#646464"/>
</svg>
