<svg xmlns="http://www.w3.org/2000/svg" width="5.737" height="7.531" viewBox="0 0 5.737 7.531">
  <g id="document" transform="translate(-61)">
    <path id="Path_139987" data-name="Path 139987" d="M64.957,2.206a.515.515,0,0,1-.515-.515V0H61.809A.81.81,0,0,0,61,.809V6.722a.81.81,0,0,0,.809.809h4.119a.81.81,0,0,0,.809-.809V2.206ZM62.206,5.3h1.07a.221.221,0,1,1,0,.441h-1.07a.221.221,0,0,1,0-.441Zm-.221-.956a.221.221,0,0,1,.221-.221h3.236a.221.221,0,0,1,0,.441H62.206A.221.221,0,0,1,61.986,4.339Zm3.457-1.4a.221.221,0,0,1,0,.441H62.206a.221.221,0,0,1,0-.441Z" fill="#646464"/>
    <path id="Path_139988" data-name="Path 139988" d="M325,7.821a.074.074,0,0,0,.074.074h1.681a.807.807,0,0,0-.155-.2l-1.418-1.342a.811.811,0,0,0-.182-.13v1.6Z" transform="translate(-260.117 -6.129)" fill="#646464"/>
  </g>
</svg>
