<svg xmlns="http://www.w3.org/2000/svg" width="20" height="20" viewBox="0 0 20 20">
  <g id="settings-sliders" transform="translate(0 0)">
    <path id="Path_135411" data-name="Path 135411" d="M.833,4.037h2.28a3.091,3.091,0,0,0,6,0H19.167a.85.85,0,0,0,0-1.7H9.109a3.091,3.091,0,0,0-6,0H.833a.85.85,0,0,0,0,1.7ZM6.111,1.7A1.487,1.487,0,1,1,4.653,3.187,1.473,1.473,0,0,1,6.111,1.7Z" transform="translate(0)"/>
    <path id="Path_135412" data-name="Path 135412" d="M19.167,10.587h-2.28a3.09,3.09,0,0,0-6,0H.833a.85.85,0,0,0,0,1.7H10.892a3.09,3.09,0,0,0,5.995,0h2.28a.85.85,0,0,0,0-1.7Zm-5.277,2.337a1.487,1.487,0,1,1,1.458-1.487,1.473,1.473,0,0,1-1.458,1.487Z" transform="translate(0 -1.437)"/>
    <path id="Path_135413" data-name="Path 135413" d="M19.167,18.837H9.109a3.091,3.091,0,0,0-6,0H.833a.85.85,0,0,0,0,1.7h2.28a3.091,3.091,0,0,0,6,0H19.167a.85.85,0,0,0,0-1.7ZM6.111,21.174a1.487,1.487,0,1,1,1.458-1.487A1.473,1.473,0,0,1,6.111,21.174Z" transform="translate(0 -2.874)"/>
  </g>
</svg>
