<svg xmlns="http://www.w3.org/2000/svg" width="15.625" height="16" viewBox="0 0 15.625 16">
  <g id="google-glass-logo" transform="translate(-5.875 0.5)">
    <g id="glass" transform="translate(6.375)">
      <path id="Path_135404" data-name="Path 135404" d="M14.625,6.75V8.625H19.05a5.239,5.239,0,0,1-5.175,4.5A5.666,5.666,0,0,1,8.25,7.5a5.666,5.666,0,0,1,5.625-5.625,5.262,5.262,0,0,1,3.9,1.725l1.35-1.35A7.364,7.364,0,0,0,13.875,0a7.5,7.5,0,0,0,0,15A7.21,7.21,0,0,0,21,7.5V6.75Z" transform="translate(-6.375)" fill="#1b1a17" stroke="#1b1a17" stroke-width="1"/>
    </g>
  </g>
</svg>
