<svg xmlns="http://www.w3.org/2000/svg" width="22" height="22" viewBox="0 0 22 22">
  <g id="Group_89156" data-name="Group 89156" transform="translate(-34 -495)">
    <rect id="Rectangle_25938" data-name="Rectangle 25938" width="22" height="22" transform="translate(34 495)" fill="#d84141" opacity="0"/>
    <g id="headphones_1_" data-name="headphones (1)" transform="translate(4.332 495)">
      <g id="Group_89271" data-name="Group 89271" transform="translate(33.578 9.024)">
        <g id="Group_89270" data-name="Group 89270" transform="translate(0)">
          <path id="Path_139982" data-name="Path 139982" d="M92.934,210A1.936,1.936,0,0,0,91,211.934v5.242a1.934,1.934,0,1,0,3.867,0v-5.242A1.936,1.936,0,0,0,92.934,210Z" transform="translate(-91 -210)"/>
        </g>
      </g>
      <g id="Group_89273" data-name="Group 89273" transform="translate(31 10.414)">
        <g id="Group_89272" data-name="Group 89272" transform="translate(0)">
          <path id="Path_139983" data-name="Path 139983" d="M32.289,242.909a3.2,3.2,0,0,1,.055-.543A1.93,1.93,0,0,0,31,244.2v2.664a1.93,1.93,0,0,0,1.344,1.832,3.2,3.2,0,0,1-.055-.543Z" transform="translate(-31 -242.366)"/>
        </g>
      </g>
      <g id="Group_89275" data-name="Group 89275" transform="translate(38.735 9.024)">
        <g id="Group_89274" data-name="Group 89274" transform="translate(0)">
          <path id="Path_139984" data-name="Path 139984" d="M218.09,210a1.936,1.936,0,0,0-1.934,1.934v5.242a1.936,1.936,0,0,0,1.934,1.934,1.908,1.908,0,0,0,.554-.091,1.93,1.93,0,0,1-1.843,1.38h-2.052a1.934,1.934,0,1,0,0,1.289H216.8a3.227,3.227,0,0,0,3.223-3.223v-6.531A1.936,1.936,0,0,0,218.09,210Z" transform="translate(-211 -210)"/>
        </g>
      </g>
      <g id="Group_89277" data-name="Group 89277" transform="translate(48.992 10.414)">
        <g id="Group_89276" data-name="Group 89276">
          <path id="Path_139985" data-name="Path 139985" d="M449.722,242.366a3.2,3.2,0,0,1,.055.543v5.242a3.2,3.2,0,0,1-.055.543,1.93,1.93,0,0,0,1.344-1.832V244.2A1.93,1.93,0,0,0,449.722,242.366Z" transform="translate(-449.722 -242.366)"/>
        </g>
      </g>
      <g id="Group_89279" data-name="Group 89279" transform="translate(31)">
        <g id="Group_89278" data-name="Group 89278" transform="translate(0)">
          <path id="Path_139986" data-name="Path 139986" d="M40.668,0A9.679,9.679,0,0,0,31,9.668v.016a3.192,3.192,0,0,1,1.319-.6,8.369,8.369,0,0,1,16.7,0,3.193,3.193,0,0,1,1.319.6V9.668A9.679,9.679,0,0,0,40.668,0Z" transform="translate(-31)" fill="#f0a500"/>
        </g>
      </g>
    </g>
  </g>
</svg>
