<svg xmlns="http://www.w3.org/2000/svg" width="22" height="22" viewBox="0 0 22 22">
  <g id="Group_89152" data-name="Group 89152" transform="translate(-34 -327)">
    <rect id="Rectangle_25938" data-name="Rectangle 25938" width="22" height="22" transform="translate(34 327)" fill="#d84141" opacity="0"/>
    <g id="lock" transform="translate(-6.26 327.688)">
      <path id="Path_139867" data-name="Path 139867" d="M57.275,7.239V6.015a6.015,6.015,0,0,0-12.03,0V7.239a4.3,4.3,0,0,0-2.578,3.932v5.156a4.3,4.3,0,0,0,4.3,4.3h8.593a4.3,4.3,0,0,0,4.3-4.3V11.171A4.3,4.3,0,0,0,57.275,7.239Zm-5.156,7.369a.859.859,0,0,1-1.719,0V12.89a.859.859,0,0,1,1.719,0Zm3.437-7.734H46.964V6.015a4.3,4.3,0,1,1,8.593,0Z"/>
    </g>
  </g>
</svg>
