<svg xmlns="http://www.w3.org/2000/svg" width="22" height="22" viewBox="0 0 22 22">
  <g id="Group_89169" data-name="Group 89169" transform="translate(-34 -289)">
    <rect id="Rectangle_25938" data-name="Rectangle 25938" width="22" height="22" transform="translate(34 289)" fill="#d84141" opacity="0"/>
    <g id="correct" transform="translate(35.417 289)">
      <path id="Path_139860" data-name="Path 139860" d="M351.234,11.593h2.7l-2.7-2.7Zm0,0" transform="translate(-335.664 -8.508)" fill="#1b1a17"/>
      <path id="Path_139861" data-name="Path 139861" d="M64.535,4.389a.652.652,0,0,1-.652-.652V0H53a.652.652,0,0,0-.652.652V12.274a5.741,5.741,0,0,1,3.33-.329A.651.651,0,0,1,56.258,11h7.853a.652.652,0,1,1,0,1.3H56.828a5.733,5.733,0,0,1,2.859,7.806h7.942a.652.652,0,0,0,.652-.652V4.389ZM61.764,6.525a.652.652,0,0,1-.652.652H56.258a.652.652,0,1,1,0-1.3h4.854A.652.652,0,0,1,61.764,6.525Zm2.347,3.217H56.258a.652.652,0,0,1,0-1.3h7.853a.652.652,0,0,1,0,1.3Zm0,0" transform="translate(-49.617)" fill="#1b1a17"/>
      <path id="Path_139862" data-name="Path 139862" d="M9.363,310.173A4.431,4.431,0,1,0,4.931,314.6,4.436,4.436,0,0,0,9.363,310.173Zm-4.785,1.769a.652.652,0,0,1-.9-.079l-1.345-1.551a.652.652,0,0,1,.985-.854l.931,1.073,2.216-1.8a.652.652,0,0,1,.823,1.011Zm0,0" transform="translate(0 -292.604)" fill="#f0a500"/>
    </g>
  </g>
</svg>
