<svg xmlns="http://www.w3.org/2000/svg" xmlns:xlink="http://www.w3.org/1999/xlink" width="24" height="24" viewBox="0 0 24 24">
  <defs>
    <clipPath id="clip-path">
      <rect id="Rectangle_25858" data-name="Rectangle 25858" width="24" height="24" transform="translate(14203 8076)" fill="#f0a500"/>
    </clipPath>
  </defs>
  <g id="Mask_Group_110" data-name="Mask Group 110" transform="translate(8100 -14203) rotate(90)" opacity="0" clip-path="url(#clip-path)">
    <g id="more_4_" data-name="more (4)" transform="translate(14203 8084.484)">
      <path id="Path_135480" data-name="Path 135480" d="M20.484,0A3.516,3.516,0,1,0,24,3.516,3.52,3.52,0,0,0,20.484,0Zm0,0" fill="#f0a500"/>
      <path id="Path_135481" data-name="Path 135481" d="M12,0a3.516,3.516,0,1,0,3.516,3.516A3.52,3.52,0,0,0,12,0Zm0,0" fill="#f0a500"/>
      <path id="Path_135482" data-name="Path 135482" d="M3.516,0A3.516,3.516,0,1,0,7.031,3.516,3.52,3.52,0,0,0,3.516,0Zm0,0" fill="#f0a500"/>
    </g>
  </g>
</svg>
