<svg xmlns="http://www.w3.org/2000/svg" width="22" height="22" viewBox="0 0 22 22">
  <g id="Group_89151" data-name="Group 89151" transform="translate(-34 -272)">
    <rect id="Rectangle_25938" data-name="Rectangle 25938" width="22" height="22" transform="translate(34 272)" fill="#d84141" opacity="0"/>
    <g id="stars" transform="translate(32.8 270.487)">
      <path id="Path_139843" data-name="Path 139843" d="M16,5.271l1.488,2.976a1.572,1.572,0,0,0,1.169.85l2.657.425c1.7.319,2.126,1.594.85,2.763l-2.126,2.126a2.033,2.033,0,0,0-.425,1.594l.638,2.657c.531,2.019-.638,2.87-2.445,1.807l-2.551-1.488a1.631,1.631,0,0,0-1.7,0L11,20.47c-1.807,1.063-2.976.319-2.445-1.807l.638-2.657a2.153,2.153,0,0,0-.425-1.594L6.644,12.286c-1.275-1.275-.85-2.551.85-2.763L10.258,9.1a1.575,1.575,0,0,0,1.275-.85l1.488-2.976c.85-1.594,2.126-1.594,2.976,0Z" transform="translate(0.296)" fill="#1b1a17"/>
      <path id="Path_139844" data-name="Path 139844" d="M8.421,5.894H2.044a.821.821,0,0,1-.744-.85A.727.727,0,0,1,2.044,4.3H8.421a.838.838,0,0,1,.85.85A.753.753,0,0,1,8.421,5.894Z" transform="translate(0.006 0.014)" fill="#f0a500"/>
      <path id="Path_139845" data-name="Path 139845" d="M5.239,19.9H2.05a.838.838,0,0,1-.85-.85.782.782,0,0,1,.85-.85H5.239a.85.85,0,1,1,0,1.7Z" transform="translate(0 0.888)" fill="#f0a500"/>
      <path id="Path_139846" data-name="Path 139846" d="M3.113,12.9H2.05a.838.838,0,0,1-.85-.85.782.782,0,0,1,.85-.85H3.113a.85.85,0,0,1,0,1.7Z" transform="translate(0 0.448)" fill="#f0a500"/>
    </g>
  </g>
</svg>
