<svg xmlns="http://www.w3.org/2000/svg" width="22" height="22" viewBox="0 0 22 22">
  <g id="Group_89155" data-name="Group 89155" transform="translate(-34 -440)">
    <rect id="Rectangle_25938" data-name="Rectangle 25938" width="22" height="22" transform="translate(34 440)" fill="#d84141" opacity="0"/>
    <g id="help-web-button" transform="translate(34.509 440.517)">
      <path id="Path_139856" data-name="Path 139856" d="M10.49,0A10.482,10.482,0,1,0,20.972,10.477,10.48,10.48,0,0,0,10.49,0Zm.747,16.31a1.234,1.234,0,0,1-.845.326,1.277,1.277,0,0,1-.865-.321,1.126,1.126,0,0,1-.37-.9,1.157,1.157,0,0,1,.358-.861,1.208,1.208,0,0,1,.878-.349A1.193,1.193,0,0,1,11.6,15.416,1.136,1.136,0,0,1,11.237,16.31Zm3.036-7.526a3.706,3.706,0,0,1-.667.9q-.385.378-1.386,1.272a5.736,5.736,0,0,0-.443.443,1.8,1.8,0,0,0-.248.35,1.684,1.684,0,0,0-.126.317q-.044.158-.135.557a.9.9,0,0,1-.967.845.99.99,0,0,1-.711-.276,1.086,1.086,0,0,1-.288-.821,3.025,3.025,0,0,1,.212-1.183,2.989,2.989,0,0,1,.56-.878,12.851,12.851,0,0,1,.943-.9q.52-.455.752-.687a2.324,2.324,0,0,0,.39-.516,1.243,1.243,0,0,0,.158-.618,1.434,1.434,0,0,0-.483-1.1,1.766,1.766,0,0,0-1.248-.447A1.726,1.726,0,0,0,9.27,6.5a3.6,3.6,0,0,0-.715,1.329q-.277.919-1.048.919a1.032,1.032,0,0,1-.768-.321.982.982,0,0,1-.313-.695,2.941,2.941,0,0,1,.5-1.565A3.815,3.815,0,0,1,8.368,4.85a4.55,4.55,0,0,1,2.218-.521,4.733,4.733,0,0,1,2.08.435,3.372,3.372,0,0,1,1.394,1.183,2.9,2.9,0,0,1,.492,1.625A2.5,2.5,0,0,1,14.273,8.784Z" transform="translate(0)" fill="#1b1a17"/>
    </g>
  </g>
</svg>
