<svg xmlns="http://www.w3.org/2000/svg" width="22" height="22" viewBox="0 0 22 22">
  <g id="Group_89156" data-name="Group 89156" transform="translate(-34 -495)">
    <rect id="Rectangle_25938" data-name="Rectangle 25938" width="22" height="22" transform="translate(34 495)" fill="#d84141" opacity="0"/>
    <g id="logout" transform="translate(34.5 495.996)">
      <path id="Path_139857" data-name="Path 139857" d="M13.125,11.379a.875.875,0,0,0-.875.875v3.5a.876.876,0,0,1-.875.875H8.75V3.5A1.764,1.764,0,0,0,7.558,1.84L7.3,1.754h4.076a.876.876,0,0,1,.875.875V5.254a.875.875,0,0,0,1.75,0V2.629A2.628,2.628,0,0,0,11.375,0H1.969a.687.687,0,0,0-.094.019C1.833.02,1.793,0,1.75,0A1.752,1.752,0,0,0,0,1.754V17.5a1.764,1.764,0,0,0,1.192,1.663l5.266,1.755A1.812,1.812,0,0,0,7,21a1.752,1.752,0,0,0,1.75-1.75v-.875h2.625A2.628,2.628,0,0,0,14,15.754v-3.5a.875.875,0,0,0-.875-.875Zm0,0" transform="translate(0)" fill="#1b1a17"/>
      <path id="Path_139858" data-name="Path 139858" d="M286.7,110.422l-3.5-3.5a.875.875,0,0,0-1.494.619v2.625h-3.5a.875.875,0,1,0,0,1.75h3.5v2.625a.875.875,0,0,0,1.494.619l3.5-3.5a.874.874,0,0,0,0-1.237Zm0,0" transform="translate(-265.957 -102.287)" fill="#f0a500"/>
    </g>
  </g>
</svg>
