<svg xmlns="http://www.w3.org/2000/svg" width="22" height="22" viewBox="0 0 22 22">
  <g id="Group_89153" data-name="Group 89153" transform="translate(-34 -382)">
    <rect id="Rectangle_25938" data-name="Rectangle 25938" width="22" height="22" transform="translate(34 382)" fill="#d84141" opacity="0"/>
    <g id="bell" transform="translate(34.917 382)">
      <path id="Path_139852" data-name="Path 139852" d="M358.816,25.283a.917.917,0,0,1-.917-.917,9.564,9.564,0,0,0-2.819-6.806.917.917,0,0,1,1.3-1.3,11.383,11.383,0,0,1,3.356,8.1.917.917,0,0,1-.917.917Zm0,0" transform="translate(-339.566 -15.307)" fill="#f0a500"/>
      <path id="Path_139853" data-name="Path 139853" d="M.917,25.283A.917.917,0,0,1,0,24.366a11.383,11.383,0,0,1,3.356-8.1.916.916,0,1,1,1.3,1.3,9.562,9.562,0,0,0-2.819,6.806.917.917,0,0,1-.917.917Zm0,0" transform="translate(0 -15.307)" fill="#f0a500"/>
      <path id="Path_139854" data-name="Path 139854" d="M39.1,15.5a6.14,6.14,0,0,1-2.181-4.7V8.25a6.422,6.422,0,0,0-5.5-6.343V.917a.917.917,0,0,0-1.833,0v.99a6.421,6.421,0,0,0-5.5,6.343v2.556a6.147,6.147,0,0,1-2.189,4.705,1.6,1.6,0,0,0,1.043,2.822H38.061A1.6,1.6,0,0,0,39.1,15.5Zm0,0" transform="translate(-20.416)" fill="#1b1a17"/>
      <path id="Path_139855" data-name="Path 139855" d="M159.657,450.75a3.443,3.443,0,0,0,3.368-2.75h-6.736A3.443,3.443,0,0,0,159.657,450.75Zm0,0" transform="translate(-149.573 -428.75)" fill="#f0a500"/>
    </g>
  </g>
</svg>
