<svg id="Component_100_1" data-name="Component 100 – 1" xmlns="http://www.w3.org/2000/svg" xmlns:xlink="http://www.w3.org/1999/xlink" width="24" height="32.5" viewBox="0 0 24 32.5">
  <defs>
    <clipPath id="clip-path">
      <rect id="Rectangle_25857" data-name="Rectangle 25857" width="24" height="24" transform="translate(14203 8026)" fill="#f0a500"/>
    </clipPath>
    <clipPath id="clip-path-2">
      <rect id="Rectangle_25858" data-name="Rectangle 25858" width="24" height="24" transform="translate(14203 8076)" fill="#f0a500"/>
    </clipPath>
  </defs>
  <g id="Mask_Group_109" data-name="Mask Group 109" transform="translate(8050 -14203) rotate(90)" clip-path="url(#clip-path)">
    <g id="more_3_" data-name="more (3)" transform="translate(14203 8034.484)">
      <path id="Path_135477" data-name="Path 135477" d="M20.484,0A3.516,3.516,0,1,0,24,3.516,3.52,3.52,0,0,0,20.484,0Zm0,5.625a2.109,2.109,0,1,1,2.109-2.109A2.112,2.112,0,0,1,20.484,5.625Zm0,0" fill="#f0a500"/>
      <path id="Path_135478" data-name="Path 135478" d="M12,0a3.516,3.516,0,1,0,3.516,3.516A3.52,3.52,0,0,0,12,0Zm0,5.625a2.109,2.109,0,1,1,2.109-2.109A2.112,2.112,0,0,1,12,5.625Zm0,0" fill="#f0a500"/>
      <path id="Path_135479" data-name="Path 135479" d="M3.516,0A3.516,3.516,0,1,0,7.031,3.516,3.52,3.52,0,0,0,3.516,0Zm0,5.625A2.109,2.109,0,1,1,5.625,3.516,2.112,2.112,0,0,1,3.516,5.625Zm0,0" fill="#f0a500"/>
    </g>
  </g>
  <g id="Mask_Group_110" data-name="Mask Group 110" transform="translate(8100 -14203) rotate(90)" opacity="0" clip-path="url(#clip-path-2)">
    <g id="more_4_" data-name="more (4)" transform="translate(14203 8084.484)">
      <path id="Path_135480" data-name="Path 135480" d="M20.484,0A3.516,3.516,0,1,0,24,3.516,3.52,3.52,0,0,0,20.484,0Zm0,0" fill="#f0a500"/>
      <path id="Path_135481" data-name="Path 135481" d="M12,0a3.516,3.516,0,1,0,3.516,3.516A3.52,3.52,0,0,0,12,0Zm0,0" fill="#f0a500"/>
      <path id="Path_135482" data-name="Path 135482" d="M3.516,0A3.516,3.516,0,1,0,7.031,3.516,3.52,3.52,0,0,0,3.516,0Zm0,0" fill="#f0a500"/>
    </g>
  </g>
  <line id="Line_6" data-name="Line 6" x2="10" transform="translate(7 31.5)" fill="none" stroke="#f0a500" stroke-linecap="round" stroke-width="2"/>
</svg>
