<svg xmlns="http://www.w3.org/2000/svg" width="22" height="22" viewBox="0 0 22 22">
  <g id="Group_89152" data-name="Group 89152" transform="translate(-34 -327)">
    <rect id="Rectangle_25938" data-name="Rectangle 25938" width="22" height="22" transform="translate(34 327)" fill="#d84141" opacity="0"/>
    <g id="XMLID_105_" transform="translate(35.208 328.174)">
      <path id="XMLID_106_" d="M10.541,108.731l-3,3h0a3.178,3.178,0,0,1-4.495-4.495h0l3-3a1.059,1.059,0,0,0-1.5-1.5l-3,3h0a5.3,5.3,0,0,0,7.492,7.491h0l3-3a1.059,1.059,0,0,0-1.5-1.5Z" transform="translate(0 -95.16)"/>
      <path id="XMLID_107_" d="M114.774,5.331a5.3,5.3,0,0,0-9.043-3.746h0l-3,3a1.059,1.059,0,1,0,1.5,1.5l3-3h0a3.178,3.178,0,0,1,4.495,4.495h0l-3,3a1.059,1.059,0,1,0,1.5,1.5l3-3h0A5.263,5.263,0,0,0,114.774,5.331Z" transform="translate(-95.19 0)"/>
      <path id="XMLID_108_" d="M81.524,89.015a1.059,1.059,0,0,0,1.5,0l5.993-5.993a1.059,1.059,0,0,0-1.5-1.5l-5.993,5.993A1.06,1.06,0,0,0,81.524,89.015Z" transform="translate(-75.477 -75.444)" fill="#f0a500"/>
    </g>
  </g>
</svg>
