<svg xmlns="http://www.w3.org/2000/svg" width="20" height="20" viewBox="0 0 20 20">
  <g id="Group_89036" data-name="Group 89036" transform="translate(-201 -145)">
    <rect id="Rectangle_27" data-name="Rectangle 27" width="20" height="20" transform="translate(201 145)" fill="#fff"/>
    <g id="_01_align_center" transform="translate(161.438 144.802)">
      <path id="Path_135414" data-name="Path 135414" d="M49.067,20.12l-.579-.5c-.8-.668-7.763-6.684-7.763-11.084a8.342,8.342,0,1,1,16.684,0c0,4.4-6.965,10.416-7.76,11.087ZM49.067,2A6.545,6.545,0,0,0,42.529,8.54c0,2.764,4.285,7.18,6.538,9.2C51.32,15.719,55.6,11.3,55.6,8.54A6.545,6.545,0,0,0,49.067,2Z" transform="translate(0 0)"/>
      <path id="Path_135415" data-name="Path 135415" d="M173.433,136.212a3.307,3.307,0,1,1,3.307-3.307A3.307,3.307,0,0,1,173.433,136.212Zm0-4.96a1.653,1.653,0,1,0,1.653,1.653A1.653,1.653,0,0,0,173.433,131.252Z" transform="translate(-124.366 -124.366)"/>
    </g>
  </g>
</svg>
