<svg width="662" height="514" viewBox="0 0 662 514" fill="none" xmlns="http://www.w3.org/2000/svg">
<path d="M366.556 202.561L316.275 229.006L203.839 165.888L239.464 147.527" stroke="#00E3E4" stroke-width="2.78466" stroke-miterlimit="10"/>
<path d="M244.086 160.839L277.818 141.021L277.707 85.124L243.975 104.951L244.086 160.839Z" fill="#004037"/>
<path d="M204.953 82.6641L205.065 138.561L244.087 160.839L243.975 104.951L204.953 82.6641Z" fill="#A3A8AB"/>
<path d="M242.954 161.477L243.91 160.911L243.827 116.486L242.861 117.053L242.954 161.477Z" fill="#12C167"/>
<path d="M242.861 117.053L243.827 116.487L204.804 94.21L203.839 94.7762L242.861 117.053Z" fill="#12C167"/>
<path d="M203.838 94.7754L203.931 139.2L242.954 161.477L242.861 117.053L203.838 94.7754Z" fill="#12C167"/>
<path d="M242.835 116.813L243.801 116.247L243.782 105.062L242.817 105.628L242.835 116.813Z" fill="#F7A3EC"/>
<path d="M242.817 105.626L243.782 105.059L204.76 82.7822L203.794 83.3484L242.817 105.626Z" fill="#F7A3EC"/>
<path d="M203.794 83.3486L203.813 94.5337L242.835 116.811L242.816 105.626L203.794 83.3486Z" fill="#F7A3EC"/>
<path d="M228.17 101.841H228.087H228.022H227.734H227.604H227.511L227.4 101.896L228.328 101.33H228.421H228.514H228.56H229.126H229.256C229.331 101.33 229.405 101.395 229.479 101.441C229.598 101.508 229.709 101.586 229.813 101.674C229.852 101.699 229.886 101.731 229.915 101.766L230.073 101.896L230.147 101.971L230.203 102.036L230.268 102.101L230.417 102.277L230.463 102.342L230.509 102.398L230.612 102.555L230.704 102.704L230.779 102.825L230.853 102.973C230.878 103.018 230.9 103.064 230.918 103.112C230.918 103.168 230.964 103.214 230.983 103.27L231.048 103.437C231.048 103.437 231.048 103.493 231.048 103.521C231.045 103.542 231.045 103.564 231.048 103.586C231.052 103.651 231.052 103.716 231.048 103.781C231.052 103.824 231.052 103.867 231.048 103.911C231.049 103.932 231.049 103.954 231.048 103.976C231.048 103.976 231.048 103.976 231.048 104.031C231.057 104.146 231.057 104.26 231.048 104.375C231.074 104.593 231.04 104.815 230.951 105.016C230.861 105.217 230.718 105.39 230.537 105.516L229.609 106.083C229.787 105.954 229.927 105.78 230.017 105.58C230.107 105.38 230.142 105.159 230.12 104.941C230.133 104.805 230.133 104.668 230.12 104.532C230.123 104.511 230.123 104.489 230.12 104.467C230.101 104.338 230.07 104.211 230.027 104.087V104.087C229.982 103.945 229.93 103.805 229.869 103.669V103.669C229.805 103.526 229.734 103.387 229.655 103.251V103.251C229.581 103.122 229.498 102.992 229.414 102.871C229.331 102.76 229.247 102.657 229.154 102.555L229.089 102.5C229.02 102.424 228.945 102.353 228.866 102.286L228.959 102.24C228.855 102.153 228.743 102.075 228.625 102.008C228.555 101.963 228.48 101.926 228.402 101.896H228.328L228.17 101.841Z" fill="#004037"/>
<path d="M228.587 102.027C227.603 101.461 226.814 101.925 226.814 103.048C226.848 103.662 227.028 104.259 227.337 104.79C227.647 105.321 228.079 105.77 228.597 106.102C229.581 106.659 230.37 106.204 230.37 105.081C230.336 104.467 230.156 103.87 229.847 103.339C229.537 102.808 229.105 102.358 228.587 102.027Z" fill="#004037"/>
<path d="M234.684 105.599H234.601H234.527H234.434H234.378C234.341 105.595 234.304 105.595 234.267 105.599H234.137H234.035L233.923 105.655L234.852 105.089H234.944H234.991H235.455H235.52H235.603H235.724C235.802 105.118 235.877 105.156 235.947 105.2C236.062 105.268 236.174 105.342 236.281 105.423L236.383 105.516C236.44 105.557 236.493 105.604 236.541 105.655L236.606 105.72L236.671 105.785L236.736 105.859C236.79 105.914 236.84 105.973 236.884 106.036L236.931 106.101V106.166L237.033 106.314C237.058 106.367 237.089 106.417 237.126 106.463L237.2 106.593C237.2 106.593 237.2 106.685 237.274 106.741L237.339 106.88C237.339 106.936 237.386 106.992 237.404 107.038L237.46 107.205V107.289C237.463 107.31 237.463 107.332 237.46 107.354C237.483 107.421 237.501 107.489 237.516 107.558C237.516 107.558 237.516 107.641 237.516 107.679C237.52 107.7 237.52 107.722 237.516 107.744C237.516 107.744 237.516 107.744 237.516 107.799C237.516 107.855 237.516 108.031 237.516 108.152C237.538 108.369 237.503 108.588 237.413 108.787C237.323 108.986 237.183 109.158 237.005 109.284L236.077 109.851C236.255 109.722 236.396 109.549 236.486 109.349C236.576 109.148 236.611 108.927 236.587 108.709C236.596 108.576 236.596 108.443 236.587 108.31C236.587 108.31 236.587 108.31 236.587 108.245C236.565 108.113 236.534 107.983 236.494 107.855V107.855C236.45 107.713 236.397 107.573 236.337 107.437C236.272 107.298 236.197 107.159 236.123 107.029C236.051 106.895 235.967 106.768 235.873 106.648V106.648C235.789 106.537 235.696 106.435 235.613 106.342C235.589 106.323 235.567 106.301 235.548 106.277L235.325 106.073L235.223 105.98C235.116 105.896 235.004 105.819 234.889 105.748L234.666 105.637H234.592L234.684 105.599Z" fill="#004037"/>
<path d="M235.102 105.777C234.118 105.22 233.319 105.675 233.329 106.798C233.362 107.412 233.541 108.009 233.851 108.54C234.161 109.071 234.593 109.521 235.111 109.852C236.095 110.418 236.884 109.963 236.884 108.831C236.848 108.217 236.669 107.621 236.359 107.09C236.049 106.559 235.618 106.109 235.102 105.777V105.777Z" fill="#004037"/>
<path d="M203.571 82.5332L242.956 105.107V106.658L203.571 84.0833V82.5332Z" fill="#B7EDED"/>
<path d="M203.571 82.5335L242.956 105.108L277.82 85.1882L237.85 62.3076L203.571 82.5335Z" fill="#B7EDED"/>
<path d="M277.819 85.1885V86.5994L242.956 106.658V105.108L277.819 85.1885Z" fill="#C4FF45"/>
<path d="M232.922 139.915C232.656 140.312 232.345 140.677 231.994 141.001C231.66 141.313 231.292 141.587 230.898 141.818L232.087 141.131C232.89 140.654 233.578 140.004 234.101 139.229L232.922 139.915Z" fill="#F9F3E8"/>
<path d="M222.144 115.587C227.472 118.669 231.779 126.132 231.761 132.295C231.742 138.458 227.407 140.89 222.079 137.809C216.751 134.727 212.444 127.273 212.463 121.101C212.482 114.928 216.807 112.515 222.144 115.587Z" fill="#004037"/>
<path d="M225.497 114.873C226.026 115.347 226.536 115.857 227.037 116.386C227.539 116.915 227.966 117.482 228.476 118.057C228.931 118.633 229.404 119.236 229.785 119.849L229.952 120.127C230.295 120.638 230.62 121.167 230.88 121.696L231.047 121.984C231.381 122.587 231.697 123.19 231.976 123.84C232.3 124.518 232.597 125.204 232.857 125.891L234.045 125.204C234.011 125.132 233.98 125.058 233.953 124.982C233.878 124.787 233.795 124.583 233.711 124.388C233.628 124.193 233.553 123.998 233.461 123.794L233.191 123.19C233.108 123.014 233.015 122.828 232.932 122.643L232.56 121.928C232.458 121.742 232.356 121.557 232.245 121.371L232.087 121.083L231.948 120.823C231.678 120.378 231.4 119.941 231.112 119.505L230.945 119.236C230.704 118.874 230.453 118.521 230.203 118.178L229.683 117.5C229.534 117.315 229.395 117.129 229.237 116.953C229.09 116.759 228.932 116.573 228.764 116.396C228.606 116.21 228.448 116.034 228.281 115.857L227.836 115.384L227.307 114.864L226.759 114.354C226.583 114.196 226.406 114.038 226.221 113.889C226.035 113.741 225.859 113.583 225.673 113.435L225.125 113.017L224.587 112.636L224.058 112.284L223.529 111.968L223.408 111.894L223.018 111.671L222.508 111.411L222.174 111.253H222.099H222.006L221.505 111.04L221.004 110.854C220.976 110.85 220.948 110.85 220.92 110.854H220.846L220.512 110.743C220.336 110.687 220.169 110.641 219.992 110.604L219.751 110.548H219.639H219.482C219.304 110.508 219.124 110.477 218.943 110.455H218.609H218.386C218.191 110.455 217.997 110.455 217.802 110.455H217.161C216.921 110.475 216.682 110.509 216.446 110.557V110.557H216.298C216.059 110.607 215.823 110.672 215.592 110.752H215.537C215.215 110.87 214.905 111.016 214.609 111.188L213.42 111.875C213.716 111.702 214.026 111.556 214.349 111.439C214.594 111.349 214.846 111.275 215.1 111.216H215.249C215.555 111.153 215.865 111.112 216.177 111.096H216.363C216.672 111.078 216.982 111.078 217.291 111.096H217.412C217.746 111.133 218.089 111.188 218.442 111.263H218.544C218.906 111.346 219.268 111.448 219.639 111.569H219.714C220.115 111.704 220.509 111.862 220.893 112.042H220.976C221.375 112.228 221.793 112.441 222.201 112.674C222.795 113.018 223.368 113.397 223.919 113.806C224.461 114.136 224.988 114.492 225.497 114.873V114.873Z" fill="#F9F3E8"/>
<path d="M229.802 137.94L230.127 137.754C229.891 137.884 229.646 137.996 229.393 138.088C229.202 138.16 229.007 138.219 228.809 138.264H228.688C228.448 138.309 228.207 138.34 227.964 138.357H227.815C227.571 138.371 227.326 138.371 227.082 138.357H226.989C226.721 138.335 226.454 138.294 226.191 138.237H226.107C225.818 138.172 225.533 138.092 225.253 137.995H225.198C224.901 137.89 224.591 137.769 224.27 137.633H224.205C223.898 137.485 223.573 137.318 223.276 137.132C222.979 136.946 222.636 136.742 222.348 136.519H222.292C221.995 136.306 221.708 136.092 221.42 135.86L221.327 135.777C221.049 135.554 220.77 135.313 220.501 135.062L220.408 134.969C220.13 134.719 219.87 134.449 219.601 134.171L219.545 134.106C219.266 133.809 218.988 133.503 218.728 133.178C218.459 132.853 218.19 132.519 217.939 132.175C217.716 131.878 217.503 131.563 217.299 131.247C217.094 130.932 217.039 130.829 216.909 130.625C216.779 130.421 216.686 130.282 216.584 130.096L216.445 129.846C216.278 129.548 216.11 129.251 215.953 128.917C215.958 128.887 215.958 128.855 215.953 128.824C215.767 128.453 215.591 128.082 215.424 127.701V127.646C215.257 127.274 215.108 126.903 214.969 126.532V126.458C214.82 126.077 214.7 125.696 214.579 125.307C214.579 125.307 214.579 125.307 214.579 125.242C214.468 124.87 214.365 124.499 214.282 124.128V124.026C214.201 123.648 214.127 123.268 214.059 122.884C214.003 122.506 213.957 122.126 213.92 121.742V121.659C213.92 121.278 213.873 120.907 213.873 120.535C213.873 120.164 213.873 119.821 213.92 119.477C213.925 119.447 213.925 119.415 213.92 119.384C213.92 119.078 213.994 118.781 214.05 118.456V118.336C214.106 118.057 214.18 117.788 214.254 117.537C214.258 117.491 214.258 117.444 214.254 117.398C214.338 117.157 214.43 116.925 214.523 116.711C214.52 116.683 214.52 116.655 214.523 116.628C214.635 116.388 214.762 116.155 214.904 115.932C215.098 115.634 215.322 115.358 215.572 115.105L215.748 114.938C215.995 114.699 216.269 114.491 216.565 114.316L216.231 114.511L215.377 115.003C215.086 115.18 214.815 115.389 214.57 115.625L214.384 115.802C214.132 116.052 213.908 116.329 213.716 116.628V116.628C213.582 116.84 213.461 117.06 213.354 117.287V117.361C213.278 117.504 213.212 117.653 213.159 117.807C213.129 117.885 213.104 117.966 213.084 118.048C213.065 118.093 213.049 118.139 213.038 118.187C213.019 118.229 213.003 118.272 212.992 118.317C212.992 118.475 212.899 118.642 212.862 118.809C212.866 118.868 212.866 118.927 212.862 118.985C212.862 119.032 212.862 119.069 212.862 119.106C212.862 119.143 212.862 119.217 212.862 119.282C212.862 119.347 212.815 119.579 212.797 119.737C212.792 119.827 212.792 119.917 212.797 120.006C212.792 120.037 212.792 120.068 212.797 120.099C212.797 120.099 212.797 120.164 212.797 120.201V120.656C212.797 120.814 212.797 120.962 212.797 121.12C212.797 121.269 212.797 121.417 212.797 121.557C212.797 121.696 212.797 121.872 212.797 122.03C212.797 122.188 212.797 122.169 212.797 122.243C212.792 122.271 212.792 122.299 212.797 122.327C212.797 122.383 212.797 122.438 212.797 122.494L212.852 122.967C212.852 123.134 212.852 123.292 212.917 123.459C212.917 123.617 212.964 123.775 212.992 123.923C213.02 124.072 213.057 124.267 213.094 124.434C213.131 124.601 213.094 124.545 213.14 124.601C213.145 124.638 213.145 124.675 213.14 124.712L213.196 124.935L213.335 125.446C213.335 125.576 213.4 125.696 213.437 125.817V125.891V125.956C213.484 126.123 213.539 126.29 213.595 126.458L213.762 126.949C213.767 126.98 213.767 127.012 213.762 127.042V127.107C213.762 127.209 213.836 127.321 213.883 127.423C213.929 127.525 214.003 127.738 214.068 127.896L214.208 128.221V128.277V128.351L214.421 128.824C214.505 128.992 214.579 129.159 214.672 129.326V129.4L214.727 129.493C214.792 129.632 214.867 129.771 214.941 129.91C215.015 130.05 215.117 130.235 215.21 130.393C215.303 130.551 215.303 130.57 215.359 130.653L215.414 130.755L215.674 131.173L216.064 131.795L216.129 131.897C216.315 132.175 216.51 132.445 216.705 132.714L217.132 133.271C217.243 133.419 217.364 133.558 217.484 133.707L217.856 134.143L218.227 134.552L218.292 134.617C218.311 134.64 218.333 134.662 218.357 134.682L218.626 134.969L219.034 135.368L219.155 135.489L219.248 135.573L219.452 135.758L219.879 136.139L220.074 136.287L220.167 136.371L220.315 136.482L220.733 136.807L221.039 137.03H221.104L221.522 137.308L221.93 137.55L222.023 137.605L222.33 137.782L222.719 137.986L222.979 138.107H223.035H223.109L223.499 138.264L223.889 138.413H223.954H224.01L224.279 138.497L224.678 138.608H224.864H224.947H225.068L225.495 138.682H225.745H225.922C226.073 138.691 226.225 138.691 226.377 138.682H226.878C227.065 138.671 227.251 138.646 227.435 138.608V138.608H227.555C227.741 138.561 227.927 138.515 228.094 138.459H228.14C228.396 138.364 228.644 138.249 228.883 138.116L229.802 137.94Z" fill="#F9F3E8"/>
<path d="M232.261 137.513C232.153 137.94 232.157 138.387 232.272 138.811C232.388 139.236 232.611 139.623 232.92 139.936C230.786 143.055 226.72 143.649 222.07 140.966C215.21 137.012 209.659 127.405 209.687 119.524C209.715 111.644 215.256 108.469 222.144 112.423C226.785 115.115 230.851 120.397 232.967 125.966C232.308 125.966 232.039 126.69 232.289 127.628C232.842 129.392 233.133 131.228 233.153 133.076C233.182 134.603 232.878 136.117 232.261 137.513V137.513ZM222.051 137.782C227.379 140.864 231.714 138.395 231.732 132.269C231.751 126.142 227.444 118.689 222.116 115.561C216.788 112.433 212.453 114.967 212.435 121.074C212.416 127.182 216.723 134.664 222.051 137.782Z" fill="#F9F3E8"/>
<path d="M237.099 133.334V132.666C237.094 132.576 237.094 132.486 237.099 132.397C237.099 132.35 237.099 132.313 237.099 132.267C237.099 132.22 237.099 132.081 237.099 131.988C237.099 131.895 237.052 131.543 237.024 131.311C236.997 131.079 236.969 130.884 236.932 130.661C236.932 130.429 236.857 130.197 236.811 129.965C236.765 129.733 236.718 129.491 236.672 129.259L236.616 129.027C236.619 128.978 236.619 128.928 236.616 128.879C236.616 128.767 236.57 128.656 236.542 128.535L236.347 127.811C236.291 127.607 236.236 127.403 236.171 127.199C236.167 127.177 236.167 127.155 236.171 127.134V127.069V126.994V126.929V126.855V126.79V126.716L236.106 126.595L235.994 126.419L235.911 126.298L235.855 126.233L235.799 126.168L235.744 126.103L235.688 126.048L235.623 125.983L235.558 125.927H235.493H235.437H235.372H235.317H235.261H235.205H235.149H235.094H235.038H234.982H234.927H234.871H234.518C234.488 125.923 234.456 125.923 234.425 125.927L234.314 125.973L233.126 126.66C233.244 126.599 233.374 126.567 233.507 126.567H233.581C233.771 126.593 233.954 126.656 234.119 126.753C234.258 126.837 234.388 126.933 234.509 127.041V127.041C234.641 127.159 234.763 127.29 234.871 127.431V127.431C234.984 127.581 235.086 127.739 235.177 127.904V127.904C235.263 128.079 235.337 128.258 235.4 128.442C235.567 128.999 235.716 129.566 235.846 130.113C235.84 130.163 235.84 130.212 235.846 130.262C235.966 130.819 236.078 131.376 236.161 131.914C236.245 132.462 236.31 132.991 236.356 133.52C236.352 133.566 236.352 133.613 236.356 133.659C236.356 134.188 236.421 134.708 236.412 135.228C236.403 135.747 236.412 136.239 236.347 136.722C236.343 136.762 236.343 136.803 236.347 136.843C236.347 137.298 236.236 137.771 236.152 138.142V138.3C236.068 138.708 235.966 139.089 235.855 139.46C235.855 139.535 235.809 139.6 235.79 139.665C235.665 140.041 235.52 140.409 235.354 140.769C235.288 140.906 235.185 141.022 235.057 141.103L236.236 140.416C236.341 140.358 236.427 140.271 236.486 140.166C236.505 140.14 236.521 140.112 236.533 140.082V140.082C236.644 139.832 236.755 139.572 236.857 139.303C236.857 139.2 236.922 139.08 236.96 138.978C236.985 138.911 237.007 138.843 237.024 138.773L237.099 138.579C237.164 138.346 237.219 138.124 237.275 137.882L237.331 137.613V137.455C237.335 137.375 237.335 137.294 237.331 137.214C237.331 137.001 237.405 136.778 237.433 136.555C237.461 136.332 237.433 136.295 237.433 136.156C237.433 136.017 237.433 136.082 237.433 136.035C237.433 135.989 237.433 135.942 237.433 135.896C237.433 135.682 237.433 135.46 237.433 135.237C237.433 135.014 237.433 134.801 237.433 134.578C237.108 133.798 237.108 133.548 237.099 133.334Z" fill="#F9F3E8"/>
<path d="M233.597 126.141C234.216 126.541 234.671 127.15 234.878 127.858C235.563 130.062 235.919 132.354 235.936 134.662C235.986 136.576 235.612 138.478 234.841 140.231C234.609 140.705 234.098 140.788 233.551 140.473C233.353 140.347 233.172 140.197 233.012 140.027L232.938 139.943C232.629 139.631 232.406 139.243 232.29 138.819C232.175 138.394 232.171 137.947 232.279 137.521C232.909 136.127 233.226 134.613 233.207 133.084C233.188 131.235 232.897 129.399 232.344 127.635C232.066 126.707 232.344 125.964 233.022 125.974H233.096C233.272 125.998 233.442 126.055 233.597 126.141V126.141Z" fill="#004037"/>
<path d="M219.918 96.8555V100.466L225.552 103.724V100.114L219.918 96.8555Z" fill="#141414"/>
<path d="M271.97 109.879V145.151L268.489 147.203V111.93C268.521 111.327 268.696 110.739 268.999 110.216C269.303 109.693 269.726 109.25 270.234 108.923C271.19 108.329 271.97 108.737 271.97 109.879Z" fill="#F9F3E8"/>
<path d="M265.874 113.378V148.716L262.375 150.786V115.411C262.412 114.809 262.589 114.223 262.892 113.701C263.195 113.179 263.615 112.735 264.12 112.404C265.095 111.847 265.874 112.302 265.874 113.378Z" fill="#F9F3E8"/>
<path d="M259.775 116.915V152.308L256.294 154.369V118.948C256.324 118.344 256.498 117.756 256.802 117.233C257.105 116.71 257.53 116.267 258.039 115.941C258.995 115.374 259.775 115.82 259.775 116.915Z" fill="#F9F3E8"/>
<path d="M253.675 120.442V155.909L250.185 157.933V122.456C250.221 121.854 250.397 121.267 250.7 120.745C251.003 120.223 251.424 119.779 251.93 119.449C252.886 118.892 253.675 119.338 253.675 120.442Z" fill="#F9F3E8"/>
<path d="M376.638 217.237L349.915 201.764V88.001L376.638 103.465V217.237Z" fill="#0EFF85"/>
<path d="M376.636 217.235L372.867 215.045V101.282L376.636 103.464V217.235Z" fill="#00E3E4"/>
<path d="M376.638 103.475L349.915 88.0013L388.241 65.8262L414.973 81.2903L376.638 103.475Z" fill="#B7EDED"/>
<path d="M376.636 103.474L372.867 101.293L411.203 79.1084L415.027 81.2247L376.636 103.474Z" fill="#F7A3EC"/>
<path d="M415.066 194.979L376.61 217.238V103.466L415.029 81.2256L415.066 194.979Z" fill="#004037"/>
<path d="M414.769 129.846L376.777 152.086L376.657 142.813L415.02 120.666L414.769 129.846Z" fill="#12C167"/>
<path d="M381.333 156.968L384.981 159.066L382.726 160.374L379.031 158.212L381.333 156.968Z" fill="#B7EDED"/>
<path d="M381.289 181.463L384.222 183.18L382.69 184.999L379.005 182.846L381.289 181.463Z" fill="#B7EDED"/>
<path d="M379.032 158.211L378.986 159.473L381.733 161.061L381.687 184.433L379.032 182.864V184.071L382.727 186.206V160.374L379.032 158.211Z" fill="#F7A3EC"/>
<path d="M382.726 160.373L384.982 159.064V184.906L382.726 186.206V160.373Z" fill="#C4FF45"/>
<path d="M392.557 120.368V108.004L398.46 104.588V116.952L392.557 120.368Z" fill="#C4FF45"/>
<path d="M392.557 120.369L398.46 116.953L397.393 115.969L392.993 118.466L392.557 120.369Z" fill="#0EFF85"/>
<path d="M398.459 116.952L397.392 115.968V105.219L398.459 104.588V116.952Z" fill="#0EFF85"/>
<path d="M392.557 108.004L392.584 108.718L397.383 105.934L398.46 104.588L392.557 108.004Z" fill="#0EFF85"/>
<path d="M392.557 108.004V120.368L392.993 118.465L392.974 108.468L392.557 108.004Z" fill="#00E3E4"/>
<path d="M265.141 255.071L316.277 229.007L449.411 304.258L491.645 277.469" stroke="#00E3E4" stroke-width="2.78466" stroke-miterlimit="10"/>
<path d="M275.86 411.198L290.739 402.603V264.456L275.86 273.051V411.198Z" fill="#004037"/>
<path d="M192.701 207.844L177.812 216.439L275.86 273.051L290.739 264.456L192.701 207.844Z" fill="#C4FF45"/>
<path d="M257.621 450.806L275.934 440.234V270.249L257.621 280.821V450.806Z" fill="#0EFF85"/>
<path d="M155.294 200.594L136.98 211.166L257.621 280.82L275.935 270.247L155.294 200.594Z" fill="#B7EDED"/>
<path d="M257.63 450.804L136.99 381.151V211.166L257.63 280.82V450.804Z" fill="#004037"/>
<path d="M249.537 353.481L145.076 293.165V234.288L249.537 294.594V353.481Z" fill="white"/>
<path d="M238.335 333.793L156.28 286.454C153.737 284.997 151.639 281.061 151.639 277.673V257.447C151.639 254.059 153.7 252.5 156.28 253.967L238.335 301.352C240.878 302.809 242.976 306.745 242.976 310.133V330.313C242.939 333.701 240.878 335.223 238.335 333.793Z" fill="#F9F3E8"/>
<path d="M209.297 280.763L185.33 266.914C184.76 266.497 184.295 265.953 183.973 265.324C183.65 264.696 183.479 264.001 183.474 263.294V263.294C183.474 261.902 184.318 261.252 185.33 261.865L209.315 275.714C209.886 276.13 210.351 276.675 210.674 277.303C210.996 277.932 211.167 278.627 211.172 279.334V279.334C211.19 280.726 210.392 281.385 209.297 280.763Z" fill="#37474F"/>
<path d="M170.48 285.795C168.168 284.459 166.303 280.885 166.303 277.803V274.137C166.303 271.055 168.159 269.644 170.48 270.981C172.791 272.308 174.657 275.882 174.657 278.964V282.677C174.647 285.712 172.782 287.132 170.48 285.795Z" fill="#004037"/>
<path d="M183.884 293.545C181.582 292.209 179.707 288.635 179.707 285.553V281.887C179.707 278.805 181.563 277.394 183.884 278.722C186.195 280.058 188.07 283.632 188.07 286.714V290.38C188.117 293.452 186.195 294.873 183.884 293.545Z" fill="#004037"/>
<path d="M197.304 301.287C194.993 299.96 193.127 296.377 193.127 293.304V289.592C193.127 286.519 194.984 285.099 197.304 286.436C199.616 287.763 201.481 291.346 201.481 294.418V298.131C201.481 301.204 199.616 302.624 197.304 301.287Z" fill="#004037"/>
<path d="M210.727 309.038C208.416 307.702 206.541 304.128 206.541 301.046V297.38C206.541 294.298 208.397 292.887 210.727 294.215C213.029 295.551 214.904 299.125 214.904 302.207V305.873C214.904 308.955 213.029 310.366 210.727 309.038Z" fill="#004037"/>
<path d="M224.141 316.779C221.83 315.452 219.964 311.869 219.964 308.797V305.084C219.964 302.011 221.821 300.591 224.141 301.928C226.453 303.255 228.318 306.838 228.318 309.911V313.623C228.318 316.705 226.453 318.116 224.141 316.779Z" fill="#004037"/>
<path d="M225.598 365.019L168.977 332.346C168.148 331.753 167.47 330.974 166.997 330.071C166.525 329.168 166.271 328.167 166.257 327.148V327.148C166.257 325.143 167.473 324.214 168.977 325.087L225.598 357.76C226.428 358.353 227.106 359.132 227.578 360.035C228.051 360.938 228.304 361.939 228.318 362.958V362.958C228.318 364.926 227.102 365.854 225.598 365.019Z" fill="#F9F3E8"/>
<path d="M225.598 378.727L168.977 346.054C168.148 345.461 167.47 344.682 166.997 343.779C166.525 342.876 166.271 341.875 166.257 340.856V340.856C166.257 338.851 167.473 337.932 168.977 338.795L225.598 371.468C226.428 372.061 227.106 372.84 227.578 373.743C228.051 374.646 228.304 375.647 228.318 376.666V376.666C228.318 378.671 227.102 379.599 225.598 378.727Z" fill="#F9F3E8"/>
<path d="M225.598 392.438L168.977 359.774C168.147 359.181 167.468 358.4 166.995 357.495C166.523 356.591 166.27 355.587 166.257 354.567V354.567C166.257 352.562 167.473 351.643 168.977 352.515L225.598 385.179C226.429 385.773 227.108 386.553 227.58 387.458C228.053 388.363 228.306 389.366 228.318 390.387C228.318 392.392 227.102 393.311 225.598 392.438Z" fill="#F9F3E8"/>
<path d="M213.502 399.167L181.107 380.464C180.278 379.871 179.599 379.092 179.127 378.189C178.655 377.286 178.401 376.285 178.387 375.266C178.387 373.261 179.603 372.342 181.107 373.205L213.502 391.909C214.332 392.502 215.011 393.283 215.484 394.187C215.956 395.092 216.209 396.095 216.221 397.116C216.221 399.121 215.033 400.04 213.502 399.167Z" fill="#F9F3E8"/>
<path d="M453.587 241.826L458.562 259.035L523.695 295.329L516.567 278.11L453.587 241.826Z" fill="#12C167"/>
<path d="M458.563 259.034L457.272 259.275C457.272 259.275 485.119 292.97 524.104 297.184L522.703 276.216L521.635 279.232L523.9 295.309C523.9 295.309 489.565 288.598 458.563 259.034Z" fill="#414042"/>
<path d="M456.863 260.418L456.789 260.919C456.789 260.919 485.053 292.961 524.029 297.166L523.147 284.422L522.701 276.123L523.945 295.885L519.109 294.957C519.109 294.957 491.309 292.525 456.863 260.418Z" fill="#F1F2F2"/>
<path d="M457.299 259.275L456.89 260.417C456.89 260.417 485.145 290.918 524.065 297.165L524.223 295.374L523.805 295.689C523.805 295.689 491.726 291.392 457.299 259.275Z" fill="#D1D3D4"/>
<path d="M476.958 209.17C476.958 209.17 514.625 228.607 522.292 273.755C522.627 275.714 522.794 277.468 522.794 277.468L522.886 281.998L515.526 278.146C515.526 278.146 505.102 228.95 467.258 211.36L473.756 207.814L476.958 209.17Z" fill="#E9EAEB"/>
<path d="M521.022 281.042L519.899 281.274C520.298 283.13 520.549 284.356 520.549 284.356C489.695 280.076 460.271 253.13 455.574 248.638L458.581 259.034C458.581 259.034 490.568 290.723 524.243 295.392C524.225 295.392 522.675 287.883 521.022 281.042Z" fill="#C4FF45"/>
<path d="M461.152 247.042L478.649 233.907C478.649 233.907 495.199 243.923 503.711 271.723C488.141 266.155 473.718 257.791 461.152 247.042V247.042Z" fill="#B7EDED"/>
<path d="M461.159 247.042L468.26 228.181C468.26 228.181 476.307 231.281 478.637 233.871L461.159 247.042Z" fill="#96A9A9"/>
<path d="M479.745 254.652C475.494 252.193 475.466 248.22 479.698 245.779C483.931 243.337 490.837 243.347 495.06 245.779" fill="#231F20"/>
<path d="M494.234 254.162C490.001 256.603 483.095 256.594 478.872 254.162C474.649 251.73 474.593 247.738 478.826 245.297C483.058 242.856 489.964 242.865 494.188 245.297C498.411 247.729 498.467 251.683 494.234 254.162Z" fill="#FF6B78" stroke="#F7A3EC" stroke-width="0.928219" stroke-miterlimit="10"/>
<path d="M493.37 253.716C491.5 254.664 489.433 255.159 487.336 255.159C485.24 255.159 483.173 254.664 481.303 253.716C477.971 251.785 477.952 248.685 481.303 246.764C483.172 245.812 485.239 245.315 487.336 245.315C489.434 245.315 491.501 245.812 493.37 246.764C496.665 248.685 496.684 251.804 493.37 253.716Z" fill="#C4FF45"/>
<path d="M468.271 228.236C468.271 228.236 492.192 235.606 503.664 271.742L516.01 278.388C500.611 226.714 467.278 211.361 467.278 211.361L463.435 214.443L453.587 241.844L461.161 247.042L468.271 228.236Z" fill="#12C167"/>
<path d="M523.464 294.503H523.567L521.06 282.028C521.06 282.028 505.773 241.279 496.75 230.159C487.728 219.039 467.279 211.344 467.279 211.344L463.437 214.425C463.437 214.425 473.489 218.955 486.818 231.468C503.266 246.913 519.195 284.794 523.121 294.586C523.226 294.527 523.344 294.499 523.464 294.503Z" fill="#004037"/>
<path d="M523.686 283.919C523.565 282.629 521.634 280.485 521.513 280.986C520.91 283.678 520.919 279.427 520.919 279.427L524.066 297.165C524.066 297.165 524.651 293.823 523.686 283.919Z" fill="#A7A9AC"/>
<path d="M523.668 294.501C523.668 292.644 523.529 287.725 522.87 281.988C522.28 276.464 521.148 271.011 519.491 265.707C515.398 253.548 512.149 244.869 503.711 233.907C492.675 219.594 473.795 207.814 473.795 207.814L467.297 211.36C495.088 226.759 505.271 245.788 512.929 264.575C516.997 274.361 520.524 284.364 523.492 294.538C523.549 294.518 523.608 294.505 523.668 294.501V294.501Z" fill="#004037"/>
<path d="M518.675 284.068H520.197L522.889 281.998L522.796 277.469C522.796 277.469 524.253 289.146 524.123 295.216C523.989 295.289 523.84 295.327 523.687 295.328L523.362 295.207L518.675 284.068Z" fill="#B7EDED"/>
</svg>
