<svg xmlns="http://www.w3.org/2000/svg" width="8.54" height="11.387" viewBox="0 0 8.54 11.387">
  <path id="ticket" d="M4.423,11.387H5.434a.958.958,0,0,0,.921-.727.949.949,0,0,1,1.83,0,.958.958,0,0,0,.921.727h1.011A1.423,1.423,0,0,0,11.54,9.963v-1.9h-1.9a.474.474,0,0,1,0-.949h1.9V2.372A2.375,2.375,0,0,0,9.168,0H9.106a.958.958,0,0,0-.921.727.949.949,0,0,1-1.83,0A.958.958,0,0,0,5.434,0H5.372A2.375,2.375,0,0,0,3,2.372V7.117H4.9a.474.474,0,0,1,0,.949H3v1.9A1.423,1.423,0,0,0,4.423,11.387ZM6.8,7.117h.949a.474.474,0,0,1,0,.949H6.8a.474.474,0,1,1,0-.949Z" transform="translate(-3)" fill="#f0a500"/>
</svg>
