<svg id="Component_98_1" data-name="Component 98 – 1" xmlns="http://www.w3.org/2000/svg" xmlns:xlink="http://www.w3.org/1999/xlink" width="24" height="32.5" viewBox="0 0 24 32.5">
  <defs>
    <clipPath id="clip-path">
      <rect id="Rectangle_25855" data-name="Rectangle 25855" width="24" height="24" transform="translate(14089 8026)" fill="#f0a500"/>
    </clipPath>
  </defs>
  <g id="Mask_Group_111" data-name="Mask Group 111" transform="translate(-14089 -8026)" clip-path="url(#clip-path)">
    <g id="list" transform="translate(14089 8026)">
      <g id="Group_89070" data-name="Group 89070">
        <g id="Group_89069" data-name="Group 89069">
          <path id="Path_135483" data-name="Path 135483" d="M18.75,0H5.25A5.25,5.25,0,0,0,0,5.25v13.5A5.25,5.25,0,0,0,5.25,24h13.5A5.25,5.25,0,0,0,24,18.75V5.25A5.25,5.25,0,0,0,18.75,0ZM22.5,18.75a3.75,3.75,0,0,1-3.75,3.75H5.25A3.75,3.75,0,0,1,1.5,18.75V5.25A3.75,3.75,0,0,1,5.25,1.5h13.5A3.75,3.75,0,0,1,22.5,5.25Z" fill="#f0a500"/>
          <path id="Path_135484" data-name="Path 135484" d="M7.5,5.25H6A.75.75,0,0,0,5.25,6V7.5A.75.75,0,0,0,6,8.25H7.5a.75.75,0,0,0,.75-.75V6A.75.75,0,0,0,7.5,5.25Z" fill="#f0a500"/>
          <path id="Path_135485" data-name="Path 135485" d="M7.5,10.5H6a.75.75,0,0,0-.75.75v1.5A.75.75,0,0,0,6,13.5H7.5a.75.75,0,0,0,.75-.75v-1.5A.75.75,0,0,0,7.5,10.5Z" fill="#f0a500"/>
          <path id="Path_135486" data-name="Path 135486" d="M7.5,15.75H6a.75.75,0,0,0-.75.75V18a.75.75,0,0,0,.75.75H7.5A.75.75,0,0,0,8.25,18V16.5A.75.75,0,0,0,7.5,15.75Z" fill="#f0a500"/>
          <rect id="Rectangle_25859" data-name="Rectangle 25859" width="9" height="1.5" transform="translate(9.75 6)" fill="#f0a500"/>
          <rect id="Rectangle_25860" data-name="Rectangle 25860" width="9" height="1.5" transform="translate(9.75 11.25)" fill="#f0a500"/>
          <rect id="Rectangle_25861" data-name="Rectangle 25861" width="9" height="1.5" transform="translate(9.75 16.5)" fill="#f0a500"/>
        </g>
      </g>
    </g>
  </g>
  <g id="Mask_Group_112" data-name="Mask Group 112" transform="translate(-14089 -8026)" opacity="0" clip-path="url(#clip-path)">
    <g id="list-2" data-name="list" transform="translate(14089 8026)">
      <g id="Group_89072" data-name="Group 89072">
        <g id="Group_89071" data-name="Group 89071">
          <path id="Subtraction_67" data-name="Subtraction 67" d="M-14070.25-8002h-13.5a5.257,5.257,0,0,1-5.251-5.25v-13.5a5.257,5.257,0,0,1,5.251-5.251h13.5a5.257,5.257,0,0,1,5.251,5.251v13.5A5.257,5.257,0,0,1-14070.25-8002Zm-12.751-8.249a.75.75,0,0,0-.749.75v1.5a.75.75,0,0,0,.749.75h1.5a.751.751,0,0,0,.75-.75v-1.5a.751.751,0,0,0-.75-.75Zm3.752.75v1.5h9v-1.5Zm-3.752-6a.75.75,0,0,0-.749.75v1.5a.75.75,0,0,0,.749.75h1.5a.751.751,0,0,0,.75-.75v-1.5a.751.751,0,0,0-.75-.75Zm3.752.75v1.5h9v-1.5Zm-3.752-6a.75.75,0,0,0-.749.75v1.5a.752.752,0,0,0,.749.753h1.5a.753.753,0,0,0,.75-.753v-1.5a.751.751,0,0,0-.75-.75Zm3.752.75v1.5h9v-1.5Zm11.86-3.178h0a4.557,4.557,0,0,1,.28.373A4.143,4.143,0,0,0-14067.389-8023.178Z" transform="translate(14088.999 8026)" fill="#f0a500"/>
        </g>
      </g>
    </g>
  </g>
  <line id="Line_4" data-name="Line 4" x2="10" transform="translate(7 31.5)" fill="none" stroke="#f0a500" stroke-linecap="round" stroke-width="2"/>
</svg>
