<svg id="Component_98_1" data-name="Component 98 – 1" xmlns="http://www.w3.org/2000/svg" xmlns:xlink="http://www.w3.org/1999/xlink" width="24" height="24" viewBox="0 0 24 24">
  <defs>
    <clipPath id="clip-path">
      <rect id="Rectangle_25855" data-name="Rectangle 25855" width="24" height="24" fill="#949493"/>
    </clipPath>
  </defs>
  <g id="Mask_Group_111" data-name="Mask Group 111" clip-path="url(#clip-path)">
    <g id="list">
      <g id="Group_89070" data-name="Group 89070">
        <g id="Group_89069" data-name="Group 89069">
          <path id="Path_135483" data-name="Path 135483" d="M18.75,0H5.25A5.25,5.25,0,0,0,0,5.25v13.5A5.25,5.25,0,0,0,5.25,24h13.5A5.25,5.25,0,0,0,24,18.75V5.25A5.25,5.25,0,0,0,18.75,0ZM22.5,18.75a3.75,3.75,0,0,1-3.75,3.75H5.25A3.75,3.75,0,0,1,1.5,18.75V5.25A3.75,3.75,0,0,1,5.25,1.5h13.5A3.75,3.75,0,0,1,22.5,5.25Z" fill="#949493"/>
          <path id="Path_135484" data-name="Path 135484" d="M7.5,5.25H6A.75.75,0,0,0,5.25,6V7.5A.75.75,0,0,0,6,8.25H7.5a.75.75,0,0,0,.75-.75V6A.75.75,0,0,0,7.5,5.25Z" fill="#949493"/>
          <path id="Path_135485" data-name="Path 135485" d="M7.5,10.5H6a.75.75,0,0,0-.75.75v1.5A.75.75,0,0,0,6,13.5H7.5a.75.75,0,0,0,.75-.75v-1.5A.75.75,0,0,0,7.5,10.5Z" fill="#949493"/>
          <path id="Path_135486" data-name="Path 135486" d="M7.5,15.75H6a.75.75,0,0,0-.75.75V18a.75.75,0,0,0,.75.75H7.5A.75.75,0,0,0,8.25,18V16.5A.75.75,0,0,0,7.5,15.75Z" fill="#949493"/>
          <rect id="Rectangle_25859" data-name="Rectangle 25859" width="9" height="1.5" transform="translate(9.75 6)" fill="#949493"/>
          <rect id="Rectangle_25860" data-name="Rectangle 25860" width="9" height="1.5" transform="translate(9.75 11.25)" fill="#949493"/>
          <rect id="Rectangle_25861" data-name="Rectangle 25861" width="9" height="1.5" transform="translate(9.75 16.5)" fill="#949493"/>
        </g>
      </g>
    </g>
  </g>
  <g id="Mask_Group_112" data-name="Mask Group 112" opacity="0" clip-path="url(#clip-path)">
    <g id="list-2" data-name="list" transform="translate(-0.002 -0.001)">
      <g id="Group_89072" data-name="Group 89072">
        <g id="Group_89071" data-name="Group 89071">
          <path id="Subtraction_67" data-name="Subtraction 67" d="M18.751,24H5.252A5.256,5.256,0,0,1,0,18.751V5.252A5.256,5.256,0,0,1,5.252,0h13.5A5.256,5.256,0,0,1,24,5.252v13.5A5.256,5.256,0,0,1,18.751,24ZM6,15.75a.751.751,0,0,0-.75.75V18a.751.751,0,0,0,.75.75H7.5a.751.751,0,0,0,.75-.75V16.5a.751.751,0,0,0-.75-.75Zm3.75.75V18h9V16.5ZM6,10.5a.751.751,0,0,0-.75.75v1.5A.751.751,0,0,0,6,13.5H7.5a.751.751,0,0,0,.75-.75v-1.5a.751.751,0,0,0-.75-.75Zm3.75.75v1.5h9v-1.5ZM6,5.251a.751.751,0,0,0-.75.75V7.5A.751.751,0,0,0,6,8.25H7.5a.751.751,0,0,0,.75-.75V6a.751.751,0,0,0-.75-.75ZM9.752,6V7.5h9V6Z" transform="translate(0.002 0.001)" fill="#949493"/>
        </g>
      </g>
    </g>
  </g>
</svg>
