<svg id="Component_100_1" data-name="Component 100 – 1" xmlns="http://www.w3.org/2000/svg" xmlns:xlink="http://www.w3.org/1999/xlink" width="24" height="24" viewBox="0 0 24 24">
  <defs>
    <clipPath id="clip-path">
      <rect id="Rectangle_25857" data-name="Rectangle 25857" width="24" height="24" fill="#949493"/>
    </clipPath>
  </defs>
  <g id="Mask_Group_109" data-name="Mask Group 109" transform="translate(24) rotate(90)" clip-path="url(#clip-path)">
    <g id="more_3_" data-name="more (3)" transform="translate(0 8.484)">
      <path id="Path_135477" data-name="Path 135477" d="M3.516,0A3.516,3.516,0,1,0,7.031,3.516,3.52,3.52,0,0,0,3.516,0Zm0,5.625A2.109,2.109,0,1,1,5.625,3.516,2.112,2.112,0,0,1,3.516,5.625Zm0,0" transform="translate(16.969)" fill="#949493"/>
      <path id="Path_135478" data-name="Path 135478" d="M3.516,0A3.516,3.516,0,1,0,7.031,3.516,3.52,3.52,0,0,0,3.516,0Zm0,5.625A2.109,2.109,0,1,1,5.625,3.516,2.112,2.112,0,0,1,3.516,5.625Zm0,0" transform="translate(8.484)" fill="#949493"/>
      <path id="Path_135479" data-name="Path 135479" d="M3.516,0A3.516,3.516,0,1,0,7.031,3.516,3.52,3.52,0,0,0,3.516,0Zm0,5.625A2.109,2.109,0,1,1,5.625,3.516,2.112,2.112,0,0,1,3.516,5.625Zm0,0" fill="#949493"/>
    </g>
  </g>
  <g id="Mask_Group_110" data-name="Mask Group 110" transform="translate(24) rotate(90)" opacity="0" clip-path="url(#clip-path)">
    <g id="more_4_" data-name="more (4)" transform="translate(0 8.484)">
      <path id="Path_135480" data-name="Path 135480" d="M3.516,0A3.516,3.516,0,1,0,7.031,3.516,3.52,3.52,0,0,0,3.516,0Zm0,0" transform="translate(16.969)" fill="#949493"/>
      <path id="Path_135481" data-name="Path 135481" d="M3.516,0A3.516,3.516,0,1,0,7.031,3.516,3.52,3.52,0,0,0,3.516,0Zm0,0" transform="translate(8.484)" fill="#949493"/>
      <path id="Path_135482" data-name="Path 135482" d="M3.516,0A3.516,3.516,0,1,0,7.031,3.516,3.52,3.52,0,0,0,3.516,0Zm0,0" fill="#949493"/>
    </g>
  </g>
</svg>
